<?xml version="1.0" encoding="UTF-8" standalone="no"?>
<!DOCTYPE svg PUBLIC "-//W3C//DTD SVG 1.1//EN"
 "http://www.w3.org/Graphics/SVG/1.1/DTD/svg11.dtd">
<!-- Generated by graphviz version 2.40.1 (20161225.0304)
 -->
<!-- Title: %0 Pages: 1 -->
<svg width="420pt" height="476pt"
 viewBox="0.00 0.00 420.00 476.00" xmlns="http://www.w3.org/2000/svg" xmlns:xlink="http://www.w3.org/1999/xlink">
<g id="graph0" class="graph" transform="scale(1 1) rotate(0) translate(4 472)">
<title>%0</title>
<polygon fill="#ffffff" stroke="transparent" points="-4,4 -4,-472 416,-472 416,4 -4,4"/>
<!-- 0 -->
<g id="node1" class="node">
<title>0</title>
<ellipse fill="none" stroke="#000000" cx="328" cy="-450" rx="27.8228" ry="18"/>
<text text-anchor="middle" x="328" y="-445.8" font-family="Times,serif" font-size="14.00" fill="#000000">start</text>
</g>
<!-- 8 -->
<g id="node9" class="node">
<title>8</title>
<ellipse fill="none" stroke="#000000" cx="328" cy="-378" rx="27" ry="18"/>
<text text-anchor="middle" x="328" y="-373.8" font-family="Times,serif" font-size="14.00" fill="#000000">qq</text>
</g>
<!-- 0&#45;&#45;8 -->
<g id="edge15" class="edge">
<title>0&#45;&#45;8</title>
<path fill="none" stroke="#000000" d="M328,-431.8314C328,-421 328,-407.2876 328,-396.4133"/>
</g>
<!-- 1 -->
<g id="node2" class="node">
<title>1</title>
<ellipse fill="none" stroke="#000000" cx="27" cy="-234" rx="27" ry="18"/>
<text text-anchor="middle" x="27" y="-229.8" font-family="Times,serif" font-size="14.00" fill="#000000">end</text>
</g>
<!-- 3 -->
<g id="node4" class="node">
<title>3</title>
<ellipse fill="none" stroke="#000000" cx="137" cy="-162" rx="27" ry="18"/>
<text text-anchor="middle" x="137" y="-157.8" font-family="Times,serif" font-size="14.00" fill="#000000">nr</text>
</g>
<!-- 1&#45;&#45;3 -->
<g id="edge22" class="edge">
<title>1&#45;&#45;3</title>
<path fill="none" stroke="#000000" d="M46.4126,-221.2936C66.3961,-208.2135 97.3638,-187.9437 117.4115,-174.8216"/>
</g>
<!-- 4 -->
<g id="node5" class="node">
<title>4</title>
<ellipse fill="none" stroke="#000000" cx="246" cy="-18" rx="27" ry="18"/>
<text text-anchor="middle" x="246" y="-13.8" font-family="Times,serif" font-size="14.00" fill="#000000">wy</text>
</g>
<!-- 1&#45;&#45;4 -->
<g id="edge20" class="edge">
<title>1&#45;&#45;4</title>
<path fill="none" stroke="#000000" d="M26.4258,-215.8712C26.6062,-196.7722 29.1826,-166.414 42,-144 81.4691,-74.9796 175.6007,-38.8119 220.8574,-24.8952"/>
</g>
<!-- 6 -->
<g id="node7" class="node">
<title>6</title>
<ellipse fill="none" stroke="#000000" cx="164" cy="-90" rx="27" ry="18"/>
<text text-anchor="middle" x="164" y="-85.8" font-family="Times,serif" font-size="14.00" fill="#000000">XI</text>
</g>
<!-- 1&#45;&#45;6 -->
<g id="edge17" class="edge">
<title>1&#45;&#45;6</title>
<path fill="none" stroke="#000000" d="M31.4904,-216.2337C37.2042,-196.602 48.7197,-164.9914 68,-144 87.9206,-122.3115 118.6144,-107.1756 139.9112,-98.5573"/>
</g>
<!-- 2 -->
<g id="node3" class="node">
<title>2</title>
<ellipse fill="none" stroke="#000000" cx="273" cy="-234" rx="27" ry="18"/>
<text text-anchor="middle" x="273" y="-229.8" font-family="Times,serif" font-size="14.00" fill="#000000">ln</text>
</g>
<!-- 2&#45;&#45;3 -->
<g id="edge1" class="edge">
<title>2&#45;&#45;3</title>
<path fill="none" stroke="#000000" d="M251.75,-222.75C226.3496,-209.3027 184.0818,-186.9256 158.5496,-173.4086"/>
</g>
<!-- 2&#45;&#45;4 -->
<g id="edge2" class="edge">
<title>2&#45;&#45;4</title>
<path fill="none" stroke="#000000" d="M277.1632,-216.1147C279.3842,-205.6529 281.8842,-192.1529 283,-180 284.4628,-164.067 285.2772,-159.8371 283,-144 277.2891,-104.2829 261.9424,-59.6221 252.9084,-35.5878"/>
</g>
<!-- 2&#45;&#45;6 -->
<g id="edge11" class="edge">
<title>2&#45;&#45;6</title>
<path fill="none" stroke="#000000" d="M254.2514,-220.6665C241.0055,-210.58 223.463,-195.8036 211,-180 193.0988,-157.3005 178.8447,-126.7487 170.9115,-107.7213"/>
</g>
<!-- 2&#45;&#45;8 -->
<g id="edge10" class="edge">
<title>2&#45;&#45;8</title>
<path fill="none" stroke="#000000" d="M286.0989,-250.0847C293.8441,-260.3613 303.2352,-274.2898 309,-288 318.9655,-311.7008 323.9112,-341.1875 326.2095,-359.8083"/>
</g>
<!-- 10 -->
<g id="node11" class="node">
<title>10</title>
<ellipse fill="none" stroke="#000000" cx="357" cy="-162" rx="27" ry="18"/>
<text text-anchor="middle" x="357" y="-157.8" font-family="Times,serif" font-size="14.00" fill="#000000">YN</text>
</g>
<!-- 2&#45;&#45;10 -->
<g id="edge19" class="edge">
<title>2&#45;&#45;10</title>
<path fill="none" stroke="#000000" d="M289.5957,-219.7751C304.2264,-207.2345 325.4452,-189.047 340.1513,-176.4418"/>
</g>
<!-- 3&#45;&#45;6 -->
<g id="edge14" class="edge">
<title>3&#45;&#45;6</title>
<path fill="none" stroke="#000000" d="M143.6742,-144.2022C147.8593,-133.0419 153.2321,-118.7143 157.4026,-107.593"/>
</g>
<!-- 5 -->
<g id="node6" class="node">
<title>5</title>
<ellipse fill="none" stroke="#000000" cx="247" cy="-162" rx="27" ry="18"/>
<text text-anchor="middle" x="247" y="-157.8" font-family="Times,serif" font-size="14.00" fill="#000000">fl</text>
</g>
<!-- 5&#45;&#45;6 -->
<g id="edge3" class="edge">
<title>5&#45;&#45;6</title>
<path fill="none" stroke="#000000" d="M230.2037,-147.4297C215.7088,-134.8559 194.8924,-116.7982 180.4881,-104.3029"/>
</g>
<!-- 6&#45;&#45;4 -->
<g id="edge9" class="edge">
<title>6&#45;&#45;4</title>
<path fill="none" stroke="#000000" d="M180.5939,-75.4297C194.8206,-62.938 215.2113,-45.034 229.4308,-32.5486"/>
</g>
<!-- 7 -->
<g id="node8" class="node">
<title>7</title>
<ellipse fill="none" stroke="#000000" cx="273" cy="-306" rx="27" ry="18"/>
<text text-anchor="middle" x="273" y="-301.8" font-family="Times,serif" font-size="14.00" fill="#000000">qc</text>
</g>
<!-- 7&#45;&#45;0 -->
<g id="edge4" class="edge">
<title>7&#45;&#45;0</title>
<path fill="none" stroke="#000000" d="M274.7905,-324.1917C277.0888,-342.8125 282.0345,-372.2992 292,-396 297.7648,-409.7102 307.1559,-423.6387 314.9011,-433.9153"/>
</g>
<!-- 7&#45;&#45;2 -->
<g id="edge6" class="edge">
<title>7&#45;&#45;2</title>
<path fill="none" stroke="#000000" d="M273,-287.8314C273,-277 273,-263.2876 273,-252.4133"/>
</g>
<!-- 7&#45;&#45;3 -->
<g id="edge21" class="edge">
<title>7&#45;&#45;3</title>
<path fill="none" stroke="#000000" d="M246.898,-301.0857C219.9527,-294.6061 178.7367,-280.5095 156,-252 139.5709,-231.3995 136.4269,-199.9665 136.2677,-180.2226"/>
</g>
<!-- 7&#45;&#45;10 -->
<g id="edge8" class="edge">
<title>7&#45;&#45;10</title>
<path fill="none" stroke="#000000" d="M284.7835,-289.2495C292.0336,-278.7225 301.3663,-264.7644 309,-252 323.8151,-227.2275 339.2238,-197.5142 348.464,-179.195"/>
</g>
<!-- 8&#45;&#45;4 -->
<g id="edge5" class="edge">
<title>8&#45;&#45;4</title>
<path fill="none" stroke="#000000" d="M343.7998,-363.2704C368.1325,-338.9015 412,-287.5438 412,-234 412,-234 412,-234 412,-162 412,-87.7947 316.1775,-43.2236 270.1378,-26.0911"/>
</g>
<!-- 8&#45;&#45;6 -->
<g id="edge13" class="edge">
<title>8&#45;&#45;6</title>
<path fill="none" stroke="#000000" d="M305.1159,-368.3087C265.6904,-350.5767 184.53,-309.3859 136,-252 103.418,-213.4723 79.9159,-189.8414 101,-144 109.5476,-125.4156 127.9965,-110.8336 142.7324,-101.5319"/>
</g>
<!-- 8&#45;&#45;7 -->
<g id="edge16" class="edge">
<title>8&#45;&#45;7</title>
<path fill="none" stroke="#000000" d="M315.5196,-361.6621C306.5186,-349.8788 294.4207,-334.0416 285.431,-322.2733"/>
</g>
<!-- 8&#45;&#45;10 -->
<g id="edge18" class="edge">
<title>8&#45;&#45;10</title>
<path fill="none" stroke="#000000" d="M330.4226,-359.9555C335.8815,-319.2967 349.0923,-220.8988 354.5639,-180.1451"/>
</g>
<!-- 9 -->
<g id="node10" class="node">
<title>9</title>
<ellipse fill="none" stroke="#000000" cx="192" cy="-234" rx="27" ry="18"/>
<text text-anchor="middle" x="192" y="-229.8" font-family="Times,serif" font-size="14.00" fill="#000000">ZD</text>
</g>
<!-- 9&#45;&#45;3 -->
<g id="edge7" class="edge">
<title>9&#45;&#45;3</title>
<path fill="none" stroke="#000000" d="M179.5196,-217.6621C170.5186,-205.8788 158.4207,-190.0416 149.431,-178.2733"/>
</g>
<!-- 10&#45;&#45;0 -->
<g id="edge12" class="edge">
<title>10&#45;&#45;0</title>
<path fill="none" stroke="#000000" d="M361.306,-179.8229C370.1204,-219.6361 387.4966,-318.396 364,-396 359.6901,-410.2347 350.2535,-424.1468 342.1229,-434.2844"/>
</g>
</g>
</svg>
